<svg width="20" height="20" viewBox="0 0 20 20" fill="none" xmlns="http://www.w3.org/2000/svg">
<g id="check-icon" clip-path="url(#clip0_166_3504)">
<path id="circle" d="M9.99982 19.9998C4.48584 19.9998 0 15.5139 0 9.99958C0 4.48524 4.48584 -0.000244141 9.99982 -0.000244141C10.5178 -0.000244141 10.9377 0.419717 10.9377 0.937681C10.9377 1.45565 10.5178 1.87561 9.99982 1.87561C5.52 1.87561 1.8755 5.52011 1.8755 9.99993C1.8755 14.4798 5.52 18.1243 9.99982 18.1243C14.4796 18.1243 18.1242 14.4798 18.1242 9.99993C18.1242 9.48197 18.5441 9.06201 19.0621 9.06201C19.58 9.06201 20 9.48197 20 9.99993C20 15.5139 15.5138 20.0001 9.99982 20.0001V19.9998Z" fill="#519E35"/>
<path id="tick" d="M19.4899 2.63492C16.1946 5.71334 13.6214 9.49759 12.0059 13.6272C11.7618 14.2516 11.2311 14.7225 10.5804 14.8831C10.572 14.8853 10.5635 14.8874 10.555 14.8895C9.67755 15.1089 8.75802 14.7409 8.28075 13.9725C6.89137 11.7354 5.37109 9.9777 4.53152 9.08011C4.18586 8.71074 4.1763 8.20091 4.64969 7.8885C5.70366 7.19293 7.0382 7.50852 8.02212 8.56285C8.52805 9.10487 9.18577 9.83158 9.66623 10.3966C11.7618 7.50711 14.4956 4.45593 17.2457 2.12863C17.8273 1.63614 18.6075 1.50842 19.2939 1.7398C19.6767 1.86894 19.7853 2.35895 19.4902 2.63456L19.4899 2.63492Z" fill="#519E35"/>
</g>
<defs>
<clipPath id="clip0_166_3504">
<rect width="20" height="20.0004" fill="white" transform="translate(0 -0.000244141)"/>
</clipPath>
</defs>
</svg>
