<svg width="1064" height="216" viewBox="0 0 1064 216" fill="none" xmlns="http://www.w3.org/2000/svg">
<mask id="mask0_166_3678" style="mask-type:luminance" maskUnits="userSpaceOnUse" x="0" y="0" width="1064" height="216">
<path d="M1063.38 0H0V216H1063.38V0Z" fill="white"/>
</mask>
<g mask="url(#mask0_166_3678)">
<path fill-rule="evenodd" clip-rule="evenodd" d="M133.598 110.173C133.296 108.993 132.289 107.359 131.854 106.83C131.505 106.488 131.153 105.906 130.953 105.169L130.993 104.252L131.339 97.23L131.356 97.1268C131.498 96.09 132.213 90.7862 132.213 88.0084C132.213 85.2636 130.469 81.618 130.099 80.8804C130.731 75.5668 130.362 67.0462 130.322 66.3582C130.395 65.8965 130.887 62.2974 130.887 60.8885C130.887 59.4964 130.887 57.1636 128.833 54.0068C126.667 50.6702 123.523 50.3877 120.25 50.3877C120.24 50.3877 120.23 50.3877 120.223 50.3877C119.692 50.3113 115.651 48.3108 112.796 46.8486L112.906 43.1999C113.537 42.3359 113.577 41.997 113.59 41.884C113.624 41.6148 113.817 40.2025 114.016 38.7071L114.019 38.6772C114.913 38.2518 115.581 37.0888 115.724 36.474C115.75 36.3544 115.787 36.2248 115.817 36.0885C116.116 34.9022 116.452 33.5497 115.654 33.1343C115.584 33.0978 115.511 33.0678 115.438 33.0513C115.664 31.948 115.781 30.436 115.338 27.6878C114.826 24.5043 110.793 23.3811 107.502 23.3811H107.406C104.053 23.3811 100.006 24.5109 99.6567 27.711C99.3975 30.1004 99.3575 31.8616 99.5303 33.0546C99.4639 33.0745 99.391 33.1011 99.3278 33.1343C98.527 33.5497 98.8623 34.9022 99.1615 36.0885C99.1917 36.2248 99.2279 36.3544 99.2544 36.474C99.411 37.1652 100.095 38.2353 100.916 38.6573L100.923 38.727C101.129 40.2125 101.318 41.6148 101.348 41.884C101.371 42.0834 101.465 42.316 101.641 42.6184L101.84 46.8553C98.9854 48.3174 94.9479 50.3146 94.443 50.391C91.1328 50.391 87.983 50.6669 85.8062 54.01C83.7494 57.1701 83.7494 59.4996 83.7494 60.8918C83.7494 62.2974 84.2445 65.8997 84.311 66.362C84.2775 67.0494 83.9087 75.57 84.5367 80.8836C84.1646 81.618 82.4231 85.2636 82.4231 88.0117C82.4231 90.7899 83.1408 96.0965 83.2806 97.1301L83.2941 97.2332L83.6727 104.836C83.4966 105.733 83.0911 106.438 82.6893 106.837C82.2471 107.365 81.247 109 80.9478 110.18C80.5191 112.048 78.7079 114.958 78.8078 115.424C79.1302 116.032 79.6751 116.254 80.167 115.962C80.7054 115.596 81.9582 114.277 82.124 113.623C82.3632 114.43 83.4 120.279 83.8023 120.99C83.9454 121.651 84.3806 122.246 84.879 122.259C85.3375 122.096 85.6167 121.88 85.6167 121.88C85.7565 122.528 86.0022 123.336 86.8959 123.386C87.3312 123.316 87.511 123.004 87.4775 122.578C87.8199 122.691 88.6704 122.452 88.9063 121.84C89.1024 121.309 89.2357 120.631 89.2919 120.289C89.2854 120.196 89.3151 120.162 89.2919 120.289C89.3054 120.421 89.448 120.588 89.7774 120.604C90.1095 120.558 90.3654 120.358 90.4783 119.122C90.555 118.335 90.5382 115.999 90.5118 115.879C90.4848 115.76 90.3622 114.061 90.3157 113.267C90.5479 112.353 90.4184 109.479 90.3023 108.953C90.1727 108.362 89.9534 107.913 89.2023 106.72C89.2719 105.7 89.2952 104.856 89.3087 104.531C89.3319 104.228 89.3551 103.906 89.3654 103.65C89.435 102.324 89.5344 100.952 89.5479 100.676C89.6742 100.254 89.927 99.626 90.2256 98.898C91.1263 96.7046 92.4957 93.3782 92.4358 90.2413C92.3958 87.9117 92.3327 85.9645 92.2959 85.0173C92.2727 84.3396 92.2463 83.7948 92.2328 83.4222C92.2166 83.21 92.2128 83.0334 92.1895 82.8941L92.203 82.798C92.4288 80.7276 92.8608 76.7132 93.0374 73.8555C93.6486 75.5998 94.5823 77.9061 95.8254 80.0029C95.8221 82.9972 95.732 84.8948 95.6623 86.4197C95.6126 87.3669 95.5791 88.131 95.5727 88.9124C95.1606 89.5404 93.4494 92.4445 93.4294 96.7515C92.7479 99.2436 92.0535 102.015 92.0167 103.733V103.756V103.773C92.0335 103.956 93.2863 122.013 94.6455 126.832C94.8912 127.692 95.1774 128.636 95.4765 129.63C96.6694 133.597 98.1549 138.536 98.0383 141.493C97.9951 142.709 97.643 143.753 97.2407 144.959C96.4334 147.348 95.523 150.067 96.6127 155.208C97.5102 159.424 98.1182 161.282 98.703 163.087C99.1847 164.585 99.6469 165.997 100.261 168.669C100.531 169.836 100.75 170.789 100.936 171.587C101.654 174.668 101.81 175.329 101.827 176.432C101.587 176.595 101.238 176.881 101.009 177.303C100.78 177.721 100.77 178.366 101.006 178.828C100.544 179.257 100.022 179.679 99.7166 179.881C99.3046 180.174 98.6965 180.815 98.5367 180.995C98.2743 181.197 98.1679 181.513 98.1182 181.749C97.859 181.918 97.703 182.164 97.6959 182.464C97.6862 182.879 97.9686 183.281 98.3672 183.444C98.6102 183.533 98.8693 183.55 99.0654 183.513C99.2182 183.6 99.4374 183.666 99.7496 183.693C100.102 183.729 100.351 183.686 100.544 183.623C100.684 183.703 100.88 183.749 101.136 183.749C101.531 183.749 101.813 183.683 102.016 183.584C102.196 183.726 102.438 183.836 102.774 183.836H102.864C103.581 183.836 104.05 183.636 104.333 183.424C104.661 183.65 105.213 183.859 106.17 183.769C106.669 183.723 107.05 183.603 107.313 183.424C107.579 183.607 107.958 183.726 108.463 183.769C109.417 183.856 109.968 183.65 110.301 183.424C110.586 183.636 111.045 183.836 111.766 183.836H111.849C112.181 183.836 112.434 183.726 112.61 183.584C112.813 183.683 113.098 183.749 113.477 183.749H113.517C113.763 183.749 113.949 183.703 114.089 183.623C114.281 183.689 114.531 183.726 114.873 183.693C115.182 183.666 115.405 183.603 115.554 183.513C115.75 183.553 116.023 183.537 116.262 183.444C116.657 183.281 116.943 182.879 116.933 182.464C116.923 182.164 116.767 181.918 116.505 181.749C116.461 181.516 116.352 181.197 116.089 180.995C115.933 180.815 115.325 180.174 114.913 179.881C114.61 179.676 114.089 179.257 113.627 178.828C113.863 178.366 113.856 177.721 113.624 177.303C113.391 176.881 113.045 176.595 112.803 176.432C112.823 175.329 112.976 174.668 113.697 171.587C113.883 170.789 114.105 169.836 114.378 168.669C114.986 165.997 115.448 164.585 115.937 163.087C116.525 161.282 117.126 159.421 118.017 155.208C119.11 150.067 118.2 147.348 117.395 144.959C116.993 143.753 116.641 142.709 116.594 141.493C116.481 138.532 117.964 133.597 119.16 129.63C119.459 128.636 119.741 127.692 119.984 126.832C121.353 122.013 122.599 103.952 122.609 103.773V103.756V103.733C122.573 102.015 121.881 99.2436 121.2 96.7515C121.184 92.4477 119.469 89.5436 119.057 88.9124C119.053 88.131 119.017 87.3669 118.97 86.4197C118.897 84.8948 118.805 82.9972 118.801 80.0029C120.05 77.9061 120.981 75.5998 121.589 73.8555C121.769 76.7132 122.197 80.7276 122.426 82.798L122.437 82.8941C122.413 83.0334 122.41 83.21 122.397 83.4222C122.383 83.7948 122.36 84.3396 122.33 85.0173C122.304 85.9645 122.234 87.9117 122.194 90.2413C122.131 93.3782 123.5 96.7046 124.401 98.898C124.696 99.6222 124.955 100.254 125.081 100.676C125.095 101.001 125.174 102.743 125.211 104.201C125.225 104.627 125.234 105.361 125.234 105.361L125.251 105.372C125.268 105.753 125.288 106.216 125.324 106.72C124.57 107.913 124.347 108.362 124.228 108.953C124.111 109.479 123.978 112.353 124.211 113.267C124.161 114.061 124.045 115.76 124.018 115.879C123.992 115.995 123.975 118.332 124.048 119.122C124.165 120.358 124.424 120.561 124.753 120.604C125.081 120.588 125.225 120.421 125.234 120.289C125.211 120.162 125.241 120.196 125.234 120.289C125.297 120.631 125.427 121.309 125.62 121.84C125.859 122.452 126.717 122.691 127.049 122.578C127.016 123.004 127.192 123.32 127.63 123.386C128.534 123.336 128.777 122.528 128.913 121.88C128.913 121.88 129.196 122.096 129.651 122.259C130.146 122.246 130.585 121.651 130.724 120.99C131.126 120.279 132.16 114.43 132.406 113.623C132.572 114.277 133.828 115.596 134.366 115.962C134.855 116.254 135.4 116.032 135.722 115.424C135.835 114.955 134.027 112.041 133.598 110.173ZM107.057 127.556C107.057 127.533 107.164 126.224 107.3 124.705L107.585 127.546C107.689 129.53 107.522 132.012 107.32 134.229C107.124 132.012 106.957 129.53 107.057 127.556ZM107.838 180.071C107.885 180.26 107.619 180.776 107.353 181.121C107.343 181.128 107.333 181.137 107.317 181.151C107.306 181.137 107.297 181.128 107.29 181.121C107.021 180.776 106.758 180.257 106.805 180.071C107.357 177.884 106.898 176.655 106.885 176.621C106.539 175.575 105.95 166.37 106.439 163.937L106.552 163.379C106.874 161.761 107.173 160.299 107.317 158.454C107.469 160.302 107.762 161.761 108.091 163.379L108.197 163.937C108.685 166.37 108.101 175.575 107.762 176.608C107.745 176.652 107.286 177.881 107.838 180.071Z" fill="url(#paint0_linear_166_3678)" fill-opacity="0.6"/>
<path d="M212.908 213.751C180.757 204.559 156.413 161.475 156.413 109.662C156.413 57.8488 180.757 14.7684 212.908 5.57014V5.2478C170.968 13.7383 139.016 57.2305 139.016 109.662C139.016 162.087 170.964 205.579 212.905 214.07L212.908 213.751Z" fill="url(#paint1_linear_166_3678)" fill-opacity="0.6"/>
<path d="M1.63232 5.56667C33.7831 14.7683 58.1279 57.8487 58.1279 109.659C58.1279 161.475 33.7798 204.559 1.63232 213.751V214.07C43.5729 205.579 75.5208 162.087 75.5208 109.659C75.5208 57.2304 43.5729 13.7382 1.63232 5.24768V5.56667Z" fill="url(#paint2_linear_166_3678)" fill-opacity="0.6"/>
<path d="M276.536 56.7373H218.292V83.5078H269.919V99.6884H218.292V127.336H277.273V143.52H200.198V40.5607H276.536V56.7373Z" fill="url(#paint3_linear_166_3678)" fill-opacity="0.6"/>
<path d="M371.956 143.519L342.879 104.011L313.636 143.519H291.355L331.654 90.4463L292.936 39.1711H315.852L343.351 76.5856L371.005 39.1711H393.29L354.729 90.1504L394.868 143.522L371.956 143.519Z" fill="url(#paint4_linear_166_3678)" fill-opacity="0.6"/>
<path d="M452.476 110.421H432.032V143.52H413.941V40.5607H454.536C478.512 40.5607 493.659 54.0924 493.659 75.1238C493.659 98.3589 475.126 110.421 452.476 110.421ZM453.06 57.0365H432.028V94.0989H453.06C466.741 94.0989 475.272 86.5988 475.272 75.5661C475.275 63.3572 466.595 57.0365 453.06 57.0365Z" fill="url(#paint5_linear_166_3678)" fill-opacity="0.6"/>
<path d="M588.533 56.7373H530.284V83.5078H581.913V99.6884H530.284V127.336H589.267V143.52H512.196V40.5607H588.533V56.7373Z" fill="url(#paint6_linear_166_3678)" fill-opacity="0.6"/>
<path d="M676.772 143.52L651.479 107.627H628.826V143.52H610.736V40.5607H656.63C680.309 40.5607 694.878 53.0621 694.878 73.2133C694.878 90.2773 684.726 100.569 670.308 104.543L698.108 143.523L676.772 143.52ZM655.156 57.0365H628.826V91.5965H655.302C668.246 91.5965 676.486 84.8308 676.486 74.2398C676.486 62.9182 668.543 57.0365 655.156 57.0365Z" fill="url(#paint7_linear_166_3678)" fill-opacity="0.6"/>
<path d="M760.175 143.52H741.944V57.3254H709.285V40.5607H792.829V57.3254H760.18V143.52H760.175Z" fill="url(#paint8_linear_166_3678)" fill-opacity="0.6"/>
<path d="M862.552 118.216H861.963L829.753 69.9743V143.517H811.96V40.5585H831.227L862.557 89.2415L893.883 40.5585H913.15V143.521H895.06V69.6821L862.552 118.216Z" fill="url(#paint9_linear_166_3678)" fill-opacity="0.6"/>
<path d="M1001.98 143.517L976.68 107.625H954.033V143.517H935.948V40.5585H981.832C1005.52 40.5585 1020.07 53.0599 1020.07 73.211C1020.07 90.275 1009.93 100.566 995.51 104.541L1023.31 143.521L1001.98 143.517ZM980.358 57.0342H954.033V91.5942H980.509C993.458 91.5942 1001.69 84.8286 1001.69 74.2381C1001.69 62.9159 993.75 57.0342 980.358 57.0342Z" fill="url(#paint10_linear_166_3678)" fill-opacity="0.6"/>
<path d="M1061.41 40.5585V143.521H1043.32V40.5585H1061.41Z" fill="url(#paint11_linear_166_3678)" fill-opacity="0.6"/>
<path d="M268.457 162.106H290.585L290.08 164.555H280.453L274.498 192.512H271.627L277.582 164.555H267.952L268.457 162.106Z" fill="url(#paint12_linear_166_3678)" fill-opacity="0.6"/>
<path d="M295.191 182.164C294.939 183.35 294.852 184.467 294.939 185.527C295.022 186.583 295.291 187.5 295.74 188.268C296.188 189.046 296.833 189.664 297.66 190.132C298.491 190.594 299.515 190.827 300.724 190.827C302.386 190.827 303.898 190.392 305.264 189.518C306.629 188.644 307.68 187.401 308.41 185.803H311.242C310.704 186.843 310.092 187.81 309.404 188.693C308.716 189.577 307.919 190.348 307.018 191.016C306.114 191.674 305.101 192.192 303.974 192.555C302.851 192.92 301.595 193.107 300.216 193.107C298.471 193.107 297.029 192.811 295.886 192.219C294.746 191.624 293.876 190.817 293.271 189.787C292.662 188.76 292.32 187.554 292.234 186.155C292.151 184.762 292.277 183.264 292.616 181.662C292.952 180.053 293.503 178.545 294.261 177.139C295.022 175.733 295.942 174.5 297.029 173.451C298.112 172.394 299.335 171.56 300.701 170.955C302.064 170.347 303.536 170.048 305.114 170.048C308.128 170.048 310.275 171.088 311.554 173.158C312.837 175.225 313.04 178.229 312.165 182.167L295.191 182.164ZM309.929 180.057C310.155 178.99 310.218 177.98 310.118 177.04C310.022 176.099 309.76 175.282 309.337 174.594C308.916 173.899 308.308 173.351 307.523 172.945C306.732 172.536 305.779 172.334 304.652 172.334C303.525 172.334 302.492 172.543 301.545 172.962C300.601 173.391 299.751 173.952 298.993 174.653C298.232 175.355 297.571 176.172 297.009 177.099C296.448 178.027 295.996 179.016 295.657 180.057H309.929Z" fill="url(#paint13_linear_166_3678)" fill-opacity="0.6"/>
<path d="M337.165 177.531C337.082 175.892 336.59 174.62 335.686 173.709C334.786 172.796 333.49 172.337 331.802 172.337C330.506 172.337 329.336 172.603 328.296 173.138C327.256 173.673 326.338 174.384 325.554 175.271C324.763 176.159 324.115 177.152 323.61 178.265C323.105 179.379 322.723 180.502 322.47 181.628C322.218 182.784 322.112 183.904 322.152 185.004C322.195 186.104 322.421 187.088 322.83 187.962C323.238 188.836 323.85 189.534 324.664 190.052C325.481 190.571 326.551 190.833 327.874 190.833C329.762 190.833 331.386 190.312 332.752 189.275C334.118 188.231 335.138 186.792 335.813 184.961H338.514C338.036 186.168 337.448 187.274 336.74 188.275C336.038 189.281 335.221 190.139 334.29 190.85C333.364 191.571 332.32 192.123 331.167 192.518C330.014 192.913 328.745 193.113 327.366 193.113C325.621 193.113 324.178 192.817 323.035 192.225C321.896 191.631 321.025 190.823 320.42 189.793C319.812 188.766 319.47 187.55 319.383 186.141C319.297 184.732 319.426 183.227 319.766 181.628C320.074 180.1 320.596 178.648 321.327 177.259C322.058 175.863 322.959 174.63 324.029 173.56C325.099 172.487 326.332 171.643 327.725 171.004C329.12 170.37 330.632 170.054 332.267 170.054C334.802 170.054 336.72 170.659 338.033 171.868C339.342 173.078 339.91 174.969 339.744 177.534L337.165 177.531Z" fill="url(#paint14_linear_166_3678)" fill-opacity="0.6"/>
<path d="M345.566 192.517L352.026 162.11H354.562L352.113 173.685C353.352 172.614 354.585 171.741 355.808 171.069C357.034 170.385 358.407 170.049 359.925 170.049C361.278 170.049 362.484 170.285 363.537 170.75C364.591 171.212 365.388 172.023 365.924 173.176C366.289 173.964 366.435 174.768 366.365 175.598C366.296 176.433 366.16 177.3 365.963 178.197L362.923 192.513H360.391L363.431 178.241C363.853 176.266 363.733 174.788 363.072 173.804C362.411 172.824 361.068 172.332 359.041 172.332C358.254 172.332 357.509 172.445 356.805 172.684C356.104 172.927 355.446 173.242 354.841 173.631C354.233 174.034 353.691 174.482 353.216 174.987C352.737 175.496 352.342 176.03 352.033 176.589C351.637 177.297 351.342 177.968 351.146 178.616C350.946 179.264 350.764 179.965 350.594 180.733L348.102 192.51H345.566V192.517Z" fill="url(#paint15_linear_166_3678)" fill-opacity="0.6"/>
<path d="M375.176 192.515H372.64L377.286 170.639H379.822L379.19 173.683C380.43 172.613 381.659 171.739 382.885 171.068C384.111 170.383 385.484 170.048 387.002 170.048C388.355 170.048 389.558 170.284 390.615 170.749C391.671 171.211 392.466 172.022 393.001 173.175C393.366 173.962 393.513 174.767 393.442 175.597C393.373 176.431 393.237 177.299 393.041 178.196L389.997 192.512H387.465L390.505 178.239C390.93 176.265 390.807 174.787 390.146 173.803C389.485 172.823 388.142 172.331 386.115 172.331C385.328 172.331 384.583 172.444 383.879 172.683C383.174 172.925 382.52 173.241 381.915 173.63C381.307 174.032 380.765 174.48 380.29 174.986C379.811 175.494 379.416 176.029 379.107 176.588C378.711 177.295 378.416 177.967 378.22 178.615C378.02 179.263 377.838 179.964 377.668 180.732L375.176 192.515Z" fill="url(#paint16_linear_166_3678)" fill-opacity="0.6"/>
<path d="M408.282 193.107C406.873 193.08 405.613 192.824 404.504 192.346C403.39 191.871 402.477 191.152 401.755 190.196C401.037 189.242 400.566 188.039 400.343 186.607C400.117 185.168 400.204 183.493 400.596 181.576C400.934 179.974 401.463 178.475 402.181 177.079C402.898 175.68 403.793 174.468 404.862 173.431C405.933 172.387 407.162 171.56 408.558 170.955C409.95 170.347 411.492 170.048 413.18 170.048C414.898 170.048 416.327 170.35 417.47 170.955C418.61 171.56 419.487 172.38 420.109 173.407C420.73 174.434 421.093 175.647 421.209 177.056C421.322 178.468 421.209 179.971 420.87 181.572C420.504 183.317 419.926 184.899 419.138 186.308C418.354 187.71 417.407 188.926 416.31 189.94C415.214 190.95 413.981 191.731 412.615 192.283C411.243 192.831 409.801 193.107 408.282 193.107ZM418.161 181.576C418.414 180.283 418.527 179.073 418.501 177.943C418.47 176.817 418.254 175.84 417.846 175.009C417.437 174.178 416.816 173.524 415.988 173.045C415.157 172.567 414.064 172.331 412.715 172.331C411.392 172.331 410.202 172.587 409.146 173.112C408.093 173.623 407.169 174.321 406.378 175.179C405.59 176.039 404.942 177.023 404.437 178.136C403.932 179.249 403.55 180.392 403.297 181.572C403.018 182.928 402.918 184.168 403.001 185.311C403.088 186.454 403.354 187.428 403.806 188.245C404.254 189.066 404.896 189.697 405.73 190.152C406.561 190.598 407.581 190.824 408.79 190.824C410.113 190.824 411.302 190.561 412.359 190.043C413.416 189.524 414.33 188.827 415.104 187.952C415.878 187.079 416.52 186.095 417.028 184.995C417.53 183.898 417.909 182.759 418.161 181.576Z" fill="url(#paint17_linear_166_3678)" fill-opacity="0.6"/>
<path d="M427.156 192.517L433.616 162.11H436.149L429.689 192.517H427.156Z" fill="url(#paint18_linear_166_3678)" fill-opacity="0.6"/>
<path d="M448.317 193.107C446.909 193.08 445.649 192.824 444.539 192.346C443.426 191.871 442.512 191.152 441.791 190.196C441.077 189.242 440.601 188.039 440.379 186.607C440.153 185.168 440.239 183.493 440.631 181.576C440.97 179.974 441.495 178.475 442.213 177.079C442.931 175.68 443.825 174.468 444.898 173.431C445.965 172.387 447.197 171.56 448.593 170.955C449.986 170.347 451.528 170.048 453.219 170.048C454.934 170.048 456.366 170.35 457.506 170.955C458.646 171.56 459.526 172.38 460.145 173.407C460.766 174.434 461.132 175.647 461.245 177.056C461.357 178.468 461.245 179.971 460.905 181.572C460.54 183.317 459.961 184.899 459.174 186.308C458.387 187.71 457.443 188.926 456.346 189.94C455.249 190.95 454.017 191.731 452.651 192.283C451.278 192.831 449.836 193.107 448.317 193.107ZM458.197 181.576C458.453 180.283 458.563 179.073 458.536 177.943C458.506 176.817 458.29 175.84 457.881 175.009C457.469 174.178 456.855 173.524 456.024 173.045C455.193 172.567 454.1 172.331 452.751 172.331C451.428 172.331 450.238 172.587 449.181 173.112C448.128 173.623 447.205 174.321 446.413 175.179C445.626 176.039 444.978 177.023 444.473 178.136C443.968 179.249 443.585 180.392 443.333 181.572C443.054 182.928 442.954 184.168 443.037 185.311C443.124 186.454 443.389 187.428 443.838 188.245C444.29 189.066 444.932 189.697 445.762 190.152C446.593 190.598 447.613 190.824 448.823 190.824C450.145 190.824 451.335 190.561 452.392 190.043C453.449 189.524 454.362 188.827 455.137 187.952C455.911 187.079 456.552 186.095 457.057 184.995C457.565 183.898 457.948 182.759 458.197 181.576Z" fill="url(#paint19_linear_166_3678)" fill-opacity="0.6"/>
<path d="M488.349 170.641H490.884L486.704 190.407C486.395 191.872 485.946 193.268 485.374 194.607C484.796 195.943 484.012 197.119 483.029 198.136C482.042 199.15 480.822 199.957 479.373 200.562C477.924 201.167 476.156 201.469 474.073 201.469C472.468 201.469 471.132 201.267 470.062 200.858C468.992 200.449 468.154 199.934 467.55 199.315C466.942 198.694 466.536 198.007 466.323 197.269C466.114 196.518 466.061 195.82 466.177 195.179H468.879C468.879 195.996 469.032 196.664 469.344 197.186C469.653 197.701 470.069 198.113 470.59 198.408C471.112 198.707 471.707 198.907 472.385 199.02C473.059 199.13 473.78 199.193 474.538 199.193C476.256 199.193 477.698 198.891 478.868 198.299C480.038 197.711 480.995 196.94 481.739 195.983C482.487 195.023 483.062 193.943 483.47 192.726C483.876 191.516 484.211 190.283 484.461 189.018C483.361 190.36 482.025 191.39 480.45 192.075C478.871 192.769 477.31 193.115 475.761 193.115C474.099 193.115 472.72 192.796 471.621 192.168C470.524 191.527 469.683 190.683 469.108 189.629C468.53 188.572 468.194 187.343 468.094 185.934C467.995 184.531 468.114 183.059 468.454 181.541C468.793 179.939 469.294 178.434 469.975 177.028C470.65 175.615 471.494 174.403 472.508 173.369C473.521 172.346 474.711 171.531 476.077 170.943C477.442 170.352 479.011 170.056 480.786 170.056C481.486 170.056 482.185 170.159 482.876 170.352C483.567 170.551 484.215 170.834 484.82 171.199C485.425 171.562 485.959 172.03 486.425 172.591C486.89 173.156 487.232 173.788 487.458 174.492H487.541L488.349 170.641ZM486.026 181.667C486.308 180.341 486.408 179.105 486.322 177.968C486.235 176.825 485.97 175.842 485.518 175.011C485.066 174.18 484.434 173.525 483.617 173.047C482.796 172.568 481.799 172.332 480.619 172.332C479.549 172.332 478.522 172.522 477.535 172.901C476.549 173.279 475.641 173.835 474.814 174.569C473.983 175.3 473.262 176.194 472.661 177.254C472.056 178.304 471.597 179.53 471.288 180.903C470.949 182.285 470.796 183.571 470.823 184.767C470.85 185.963 471.086 187.017 471.521 187.914C471.956 188.815 472.597 189.526 473.442 190.047C474.286 190.566 475.369 190.829 476.694 190.829C477.851 190.829 478.934 190.579 479.948 190.084C480.962 189.599 481.875 188.938 482.693 188.107C483.51 187.27 484.208 186.303 484.783 185.189C485.358 184.079 485.774 182.903 486.026 181.667Z" fill="url(#paint20_linear_166_3678)" fill-opacity="0.6"/>
<path d="M494.775 198.431C495.084 198.488 495.413 198.541 495.765 198.598C496.118 198.661 496.476 198.684 496.842 198.684C497.543 198.684 498.171 198.458 498.719 198.009C499.267 197.564 499.756 197.026 500.175 196.398C500.594 195.77 500.982 195.109 501.335 194.424C501.687 193.742 502.032 193.158 502.371 192.682L498.57 170.641H501.398L504.442 189.433L515.424 170.641H518.166L505.412 192.224C504.595 193.597 503.85 194.842 503.175 195.933C502.498 197.033 501.823 197.966 501.149 198.747C500.474 199.521 499.766 200.113 499.038 200.518C498.304 200.924 497.503 201.133 496.629 201.133C496.181 201.133 495.752 201.103 495.343 201.05C494.931 200.993 494.575 200.921 494.266 200.841L494.775 198.431Z" fill="url(#paint21_linear_166_3678)" fill-opacity="0.6"/>
<path d="M545.918 157.889V204.046H543.763V157.889H545.918Z" fill="url(#paint22_linear_166_3678)" fill-opacity="0.6"/>
<path d="M575.636 183.438C575.463 184.784 575.528 185.934 575.808 186.881C576.095 187.822 576.548 188.586 577.196 189.178C577.85 189.769 578.649 190.204 579.61 190.467C580.566 190.736 581.613 190.869 582.769 190.869C584.124 190.869 585.329 190.702 586.387 190.357C587.435 190.022 588.342 189.57 589.087 188.994C589.838 188.413 590.442 187.742 590.907 186.987C591.377 186.223 591.69 185.426 591.852 184.582C592.111 183.398 592.052 182.435 591.668 181.71C591.279 180.97 590.707 180.374 589.935 179.913C589.157 179.447 588.25 179.075 587.213 178.793C586.166 178.514 585.096 178.238 584 177.969C582.899 177.699 581.829 177.384 580.793 177.022C579.745 176.656 578.859 176.161 578.13 175.546C577.396 174.925 576.867 174.127 576.543 173.16C576.219 172.183 576.213 170.954 576.521 169.462C576.748 168.422 577.18 167.405 577.833 166.424C578.476 165.434 579.313 164.56 580.323 163.806C581.343 163.042 582.548 162.437 583.93 161.988C585.329 161.536 586.868 161.31 588.558 161.31C590.28 161.31 591.722 161.55 592.889 162.031C594.06 162.51 594.978 163.168 595.653 163.989C596.334 164.826 596.766 165.793 596.966 166.886C597.16 167.986 597.122 169.156 596.836 170.389H594.098C594.347 169.236 594.357 168.238 594.114 167.394C593.877 166.55 593.477 165.862 592.916 165.328C592.349 164.793 591.641 164.401 590.783 164.145C589.924 163.895 589.017 163.769 588.05 163.769C586.592 163.769 585.318 163.972 584.232 164.381C583.158 164.79 582.245 165.314 581.516 165.966C580.782 166.61 580.22 167.331 579.821 168.122C579.432 168.903 579.216 169.698 579.194 170.485C579.135 171.469 579.356 172.26 579.842 172.851C580.339 173.446 580.992 173.921 581.808 174.306C582.629 174.682 583.557 174.994 584.605 175.234C585.642 175.473 586.7 175.719 587.764 175.991C588.839 176.261 589.859 176.576 590.847 176.945C591.836 177.31 592.662 177.806 593.337 178.424C594.017 179.042 594.498 179.83 594.789 180.81C595.092 181.78 595.081 182.993 594.773 184.458C594.179 187.277 592.743 189.457 590.469 191.012C588.185 192.557 585.285 193.328 581.765 193.328C580.193 193.328 578.773 193.125 577.499 192.713C576.235 192.308 575.209 191.686 574.399 190.855C573.594 190.025 573.054 189.001 572.768 187.775C572.487 186.546 572.514 185.106 572.86 183.445H575.636V183.438Z" fill="url(#paint23_linear_166_3678)" fill-opacity="0.6"/>
<path d="M620.191 177.531C620.1 175.892 619.608 174.62 618.712 173.709C617.81 172.796 616.514 172.337 614.824 172.337C613.528 172.337 612.361 172.603 611.319 173.138C610.277 173.673 609.364 174.384 608.571 175.271C607.788 176.159 607.134 177.152 606.637 178.265C606.124 179.379 605.746 180.502 605.498 181.628C605.239 182.784 605.131 183.904 605.174 185.004C605.217 186.104 605.439 187.088 605.849 187.962C606.254 188.836 606.87 189.534 607.685 190.052C608.5 190.571 609.575 190.833 610.898 190.833C612.777 190.833 614.408 190.312 615.78 189.275C617.14 188.231 618.161 186.792 618.836 184.961H621.536C621.061 186.168 620.472 187.274 619.759 188.275C619.063 189.281 618.247 190.139 617.319 190.85C616.39 191.571 615.348 192.123 614.192 192.518C613.036 192.913 611.767 193.113 610.385 193.113C608.646 193.113 607.199 192.817 606.065 192.225C604.92 191.631 604.051 190.823 603.446 189.793C602.836 188.766 602.49 187.55 602.409 186.141C602.323 184.732 602.447 183.227 602.782 181.628C603.095 180.1 603.619 178.648 604.353 177.259C605.082 175.863 605.979 174.63 607.053 173.56C608.122 172.487 609.359 171.643 610.752 171.004C612.14 170.37 613.652 170.054 615.288 170.054C617.826 170.054 619.743 170.659 621.055 171.868C622.362 173.078 622.929 174.969 622.767 177.534L620.191 177.531Z" fill="url(#paint24_linear_166_3678)" fill-opacity="0.6"/>
<path d="M628.971 192.516L633.615 170.64H636.148L631.509 192.516H628.971ZM634.501 165.871L635.311 162.106H638.092L637.287 165.871H634.501Z" fill="url(#paint25_linear_166_3678)" fill-opacity="0.6"/>
<path d="M645.314 182.164C645.066 183.35 644.979 184.467 645.066 185.527C645.147 186.583 645.411 187.5 645.87 188.268C646.313 189.046 646.956 189.664 647.787 190.132C648.619 190.594 649.645 190.827 650.849 190.827C652.507 190.827 654.024 190.392 655.391 189.518C656.751 188.644 657.799 187.401 658.539 185.803H661.368C660.828 186.843 660.218 187.81 659.527 188.693C658.836 189.577 658.042 190.348 657.135 191.016C656.238 191.674 655.229 192.192 654.1 192.555C652.971 192.92 651.719 193.107 650.336 193.107C648.597 193.107 647.15 192.811 646.011 192.219C644.866 191.624 643.997 190.817 643.392 189.787C642.782 188.76 642.441 187.554 642.36 186.155C642.274 184.762 642.398 183.264 642.738 181.662C643.073 180.053 643.624 178.545 644.385 177.139C645.141 175.733 646.059 174.5 647.145 173.451C648.23 172.394 649.456 171.56 650.822 170.955C652.188 170.347 653.652 170.048 655.234 170.048C658.247 170.048 660.391 171.088 661.676 173.158C662.951 175.225 663.156 178.229 662.286 182.167L645.314 182.164ZM660.056 180.057C660.283 178.99 660.342 177.98 660.251 177.04C660.148 176.099 659.894 175.282 659.468 174.594C659.046 173.899 658.442 173.351 657.653 172.945C656.859 172.536 655.909 172.334 654.78 172.334C653.652 172.334 652.62 172.543 651.675 172.962C650.73 173.391 649.877 173.952 649.121 174.653C648.36 175.355 647.696 176.172 647.134 177.099C646.572 178.027 646.119 179.016 645.789 180.057H660.056Z" fill="url(#paint26_linear_166_3678)" fill-opacity="0.6"/>
<path d="M671.165 192.515H668.627L673.277 170.639H675.809L675.172 173.683C676.42 172.613 677.645 171.739 678.866 171.068C680.092 170.383 681.468 170.048 682.986 170.048C684.336 170.048 685.546 170.284 686.593 170.749C687.652 171.211 688.451 172.022 688.985 173.175C689.347 173.962 689.493 174.767 689.423 175.597C689.353 176.431 689.218 177.299 689.029 178.196L685.983 192.512H683.456L686.491 178.239C686.912 176.265 686.798 174.787 686.134 173.803C685.475 172.823 684.125 172.331 682.1 172.331C681.312 172.331 680.567 172.444 679.859 172.683C679.157 172.925 678.509 173.241 677.899 173.63C677.294 174.032 676.749 174.48 676.274 174.986C675.788 175.494 675.399 176.029 675.091 176.588C674.702 177.295 674.405 177.967 674.206 178.615C674 179.263 673.828 179.964 673.655 180.732L671.165 192.515Z" fill="url(#paint27_linear_166_3678)" fill-opacity="0.6"/>
<path d="M714.368 177.531C714.287 175.892 713.791 174.62 712.894 173.709C711.992 172.796 710.702 172.337 709.012 172.337C707.716 172.337 706.549 172.603 705.502 173.138C704.454 173.673 703.541 174.384 702.764 175.271C701.97 176.159 701.322 177.152 700.814 178.265C700.307 179.379 699.929 180.502 699.675 181.628C699.421 182.784 699.319 183.904 699.356 185.004C699.4 186.104 699.626 187.088 700.031 187.962C700.442 188.836 701.052 189.534 701.873 190.052C702.683 190.571 703.757 190.833 705.08 190.833C706.965 190.833 708.59 190.312 709.957 189.275C711.323 188.231 712.343 186.792 713.024 184.961H715.724C715.243 186.168 714.649 187.274 713.953 188.275C713.245 189.281 712.43 190.139 711.496 190.85C710.572 191.571 709.535 192.123 708.38 192.518C707.23 192.913 705.961 193.113 704.578 193.113C702.834 193.113 701.387 192.817 700.247 192.225C699.108 191.631 698.233 190.823 697.628 189.793C697.024 188.766 696.678 187.55 696.592 186.141C696.505 184.732 696.635 183.227 696.975 181.628C697.283 180.1 697.801 178.648 698.536 177.259C699.27 175.863 700.172 174.63 701.236 173.56C702.31 172.487 703.541 171.643 704.935 171.004C706.333 170.366 707.845 170.054 709.476 170.054C712.009 170.054 713.931 170.659 715.238 171.868C716.55 173.078 717.117 174.969 716.95 177.534L714.368 177.531Z" fill="url(#paint28_linear_166_3678)" fill-opacity="0.6"/>
<path d="M726.528 182.164C726.28 183.35 726.188 184.467 726.28 185.527C726.361 186.583 726.631 187.5 727.079 188.268C727.533 189.046 728.17 189.664 729.001 190.132C729.833 190.594 730.854 190.827 732.063 190.827C733.721 190.827 735.233 190.392 736.605 189.518C737.96 188.644 739.018 187.401 739.753 185.803H742.577C742.042 186.843 741.427 187.81 740.741 188.693C740.044 189.581 739.256 190.348 738.354 191.016C737.452 191.674 736.437 192.192 735.309 192.555C734.191 192.92 732.933 193.107 731.556 193.107C729.811 193.107 728.364 192.811 727.225 192.219C726.085 191.624 725.211 190.817 724.606 189.787C724.001 188.76 723.661 187.554 723.569 186.155C723.488 184.762 723.612 183.264 723.952 181.662C724.287 180.053 724.838 178.545 725.594 177.139C726.355 175.733 727.273 174.5 728.364 173.451C729.444 172.394 730.67 171.56 732.036 170.955C733.402 170.347 734.871 170.048 736.448 170.048C739.461 170.048 741.61 171.088 742.885 173.158C744.175 175.225 744.37 178.229 743.5 182.167L726.528 182.164ZM741.27 180.057C741.486 178.99 741.556 177.98 741.454 177.04C741.357 176.099 741.097 175.282 740.682 174.594C740.25 173.899 739.645 173.351 738.856 172.945C738.073 172.536 737.112 172.334 735.994 172.334C734.866 172.334 733.829 172.543 732.884 172.962C731.944 173.391 731.091 173.952 730.324 174.653C729.568 175.355 728.91 176.172 728.348 177.099C727.781 178.027 727.327 179.016 726.993 180.057H741.27Z" fill="url(#paint29_linear_166_3678)" fill-opacity="0.6"/>
<path d="M774.832 157.889V204.046H772.683V157.889H774.832Z" fill="url(#paint30_linear_166_3678)" fill-opacity="0.6"/>
<path d="M801.444 192.517L807.903 162.11H828.131L827.624 164.559H810.268L807.903 175.546H823.568L823.066 177.988H807.395L804.819 190.067H822.602L822.094 192.517H801.444Z" fill="url(#paint31_linear_166_3678)" fill-opacity="0.6"/>
<path d="M832.779 170.641H835.527L838.649 189.393L849.713 170.641H852.462L839.324 192.517H836.499L832.779 170.641Z" fill="url(#paint32_linear_166_3678)" fill-opacity="0.6"/>
<path d="M855.539 192.516L860.178 170.64H862.716L858.072 192.516H855.539ZM861.069 165.871L861.873 162.106H864.66L863.861 165.871H861.069Z" fill="url(#paint33_linear_166_3678)" fill-opacity="0.6"/>
<path d="M891.484 162.106H894.016L887.553 192.512H885.025L885.819 188.674H885.738C885.231 189.402 884.62 190.043 883.924 190.591C883.222 191.143 882.487 191.602 881.726 191.967C880.97 192.329 880.198 192.608 879.431 192.811C878.653 193.004 877.914 193.107 877.212 193.107C875.44 193.107 873.988 192.811 872.854 192.22C871.731 191.625 870.883 190.817 870.327 189.787C869.76 188.76 869.452 187.544 869.371 186.135C869.306 184.726 869.441 183.221 869.781 181.623C870.116 180.094 870.624 178.635 871.299 177.229C871.968 175.82 872.821 174.591 873.853 173.531C874.879 172.474 876.078 171.636 877.444 170.999C878.805 170.364 880.322 170.048 881.98 170.048C883.535 170.048 884.944 170.394 886.23 171.088C887.504 171.776 888.4 172.8 888.908 174.149L891.484 162.106ZM887.342 181.493C887.596 180.253 887.671 179.077 887.569 177.964C887.472 176.851 887.196 175.88 886.748 175.049C886.3 174.219 885.673 173.557 884.869 173.062C884.064 172.574 883.092 172.328 881.937 172.328C880.614 172.328 879.415 172.584 878.346 173.109C877.271 173.62 876.331 174.338 875.516 175.239C874.695 176.139 874.02 177.193 873.486 178.389C872.956 179.582 872.573 180.865 872.352 182.251C872.071 183.623 872.001 184.849 872.157 185.903C872.308 186.959 872.649 187.853 873.151 188.581C873.658 189.319 874.323 189.877 875.154 190.256C875.986 190.628 876.936 190.824 878.005 190.824C879.188 190.824 880.295 190.581 881.321 190.11C882.352 189.624 883.265 188.973 884.059 188.143C884.863 187.308 885.544 186.324 886.089 185.185C886.645 184.048 887.061 182.822 887.342 181.493Z" fill="url(#paint34_linear_166_3678)" fill-opacity="0.6"/>
<path d="M901.276 182.164C901.033 183.35 900.941 184.467 901.033 185.527C901.114 186.583 901.379 187.5 901.832 188.268C902.28 189.046 902.923 189.664 903.754 190.132C904.586 190.594 905.607 190.827 906.816 190.827C908.479 190.827 909.986 190.392 911.358 189.518C912.719 188.644 913.772 187.401 914.506 185.803H917.33C916.796 186.843 916.18 187.81 915.494 188.693C914.798 189.581 914.009 190.348 913.107 191.016C912.206 191.674 911.19 192.192 910.062 192.555C908.939 192.92 907.68 193.107 906.309 193.107C904.565 193.107 903.123 192.811 901.978 192.219C900.839 191.624 899.964 190.817 899.359 189.787C898.754 188.76 898.409 187.554 898.322 186.155C898.236 184.762 898.365 183.264 898.706 181.662C899.046 180.053 899.591 178.545 900.347 177.139C901.109 175.733 902.032 174.5 903.117 173.451C904.197 172.394 905.429 171.56 906.789 170.955C908.156 170.347 909.63 170.048 911.201 170.048C914.22 170.048 916.364 171.088 917.643 173.158C918.929 175.225 919.123 178.229 918.254 182.167L901.276 182.164ZM916.018 180.057C916.239 178.99 916.31 177.98 916.207 177.04C916.11 176.099 915.851 175.282 915.435 174.594C915.008 173.899 914.403 173.351 913.615 172.945C912.827 172.536 911.865 172.334 910.748 172.334C909.614 172.334 908.588 172.543 907.637 172.962C906.692 173.391 905.844 173.952 905.078 174.653C904.322 175.355 903.663 176.172 903.101 177.099C902.534 178.027 902.081 179.016 901.746 180.057H916.018Z" fill="url(#paint35_linear_166_3678)" fill-opacity="0.6"/>
<path d="M927.122 192.515H924.589L929.228 170.639H931.766L931.129 173.683C932.371 172.613 933.602 171.739 934.828 171.068C936.048 170.383 937.42 170.048 938.948 170.048C940.287 170.048 941.497 170.284 942.555 170.749C943.603 171.211 944.402 172.022 944.942 173.175C945.304 173.962 945.455 174.767 945.39 175.597C945.315 176.431 945.18 177.299 944.98 178.196L941.945 192.512H939.407L942.447 178.239C942.874 176.265 942.75 174.787 942.091 173.803C941.432 172.823 940.082 172.331 938.062 172.331C937.274 172.331 936.523 172.444 935.821 172.683C935.109 172.925 934.461 173.241 933.856 173.63C933.246 174.032 932.706 174.48 932.23 174.986C931.755 175.494 931.356 176.029 931.053 176.588C930.654 177.295 930.357 177.967 930.162 178.615C929.962 179.263 929.779 179.964 929.617 180.732L927.122 192.515Z" fill="url(#paint36_linear_166_3678)" fill-opacity="0.6"/>
<path d="M970.327 177.531C970.235 175.892 969.749 174.62 968.847 173.709C967.946 172.796 966.65 172.337 964.959 172.337C963.663 172.337 962.497 172.603 961.46 173.138C960.413 173.673 959.495 174.384 958.712 175.271C957.923 176.159 957.27 177.152 956.773 178.265C956.265 179.379 955.887 180.502 955.628 181.628C955.374 182.784 955.266 183.904 955.315 185.004C955.353 186.104 955.574 187.088 955.99 187.962C956.39 188.836 957.005 189.534 957.821 190.052C958.641 190.571 959.711 190.833 961.034 190.833C962.913 190.833 964.544 190.312 965.915 189.275C967.271 188.231 968.302 186.792 968.972 184.961H971.672C971.196 186.168 970.608 187.274 969.9 188.275C969.198 189.281 968.378 190.139 967.454 190.85C966.531 191.571 965.478 192.123 964.328 192.518C963.172 192.913 961.908 193.113 960.526 193.113C958.776 193.113 957.335 192.817 956.201 192.225C955.056 191.631 954.186 190.823 953.582 189.793C952.971 188.766 952.626 187.55 952.539 186.141C952.464 184.732 952.583 183.227 952.917 181.628C953.231 180.1 953.749 178.648 954.489 177.259C955.218 175.863 956.114 174.63 957.189 173.56C958.263 172.487 959.489 171.643 960.888 171.004C962.281 170.37 963.788 170.054 965.424 170.054C967.962 170.054 969.873 170.659 971.186 171.868C972.498 173.078 973.059 174.969 972.903 177.534L970.327 177.531Z" fill="url(#paint37_linear_166_3678)" fill-opacity="0.6"/>
<path d="M982.48 182.164C982.231 183.35 982.145 184.467 982.231 185.527C982.312 186.583 982.577 187.5 983.03 188.268C983.479 189.046 984.121 189.664 984.953 190.132C985.779 190.594 986.805 190.827 988.015 190.827C989.673 190.827 991.19 190.392 992.551 189.518C993.917 188.644 994.965 187.401 995.699 185.803H998.534C997.999 186.843 997.384 187.81 996.687 188.693C996.001 189.581 995.202 190.348 994.3 191.016C993.399 191.674 992.394 192.192 991.265 192.555C990.137 192.92 988.884 193.107 987.507 193.107C985.757 193.107 984.316 192.811 983.171 192.219C982.031 191.624 981.162 190.817 980.552 189.787C979.947 188.76 979.607 187.554 979.521 186.155C979.44 184.762 979.564 183.264 979.898 181.662C980.239 180.053 980.784 178.545 981.546 177.139C982.307 175.733 983.225 174.5 984.31 173.451C985.401 172.394 986.621 171.56 987.988 170.955C989.348 170.347 990.823 170.048 992.399 170.048C995.407 170.048 997.556 171.088 998.842 173.158C1000.12 175.225 1000.32 178.229 999.457 182.167L982.48 182.164ZM997.222 180.057C997.443 178.99 997.508 177.98 997.411 177.04C997.313 176.099 997.06 175.282 996.633 174.594C996.212 173.899 995.607 173.351 994.819 172.945C994.025 172.536 993.074 172.334 991.94 172.334C990.817 172.334 989.791 172.543 988.841 172.962C987.896 173.391 987.043 173.952 986.287 174.653C985.52 175.355 984.861 176.172 984.299 177.099C983.732 178.027 983.284 179.016 982.949 180.057H997.222Z" fill="url(#paint38_linear_166_3678)" fill-opacity="0.6"/>
</g>
<defs>
<linearGradient id="paint0_linear_166_3678" x1="104.122" y1="43.5528" x2="104.122" y2="176.867" gradientUnits="userSpaceOnUse">
<stop stop-color="#4DACEF"/>
<stop offset="1" stop-color="#4DACEF" stop-opacity="0"/>
</linearGradient>
<linearGradient id="paint1_linear_166_3678" x1="171.882" y1="31.5" x2="171.882" y2="205" gradientUnits="userSpaceOnUse">
<stop stop-color="#4DACEF"/>
<stop offset="1" stop-color="#4DACEF" stop-opacity="0"/>
</linearGradient>
<linearGradient id="paint2_linear_166_3678" x1="34.4966" y1="31.4999" x2="34.4966" y2="205" gradientUnits="userSpaceOnUse">
<stop stop-color="#4DACEF"/>
<stop offset="1" stop-color="#4DACEF" stop-opacity="0"/>
</linearGradient>
<linearGradient id="paint3_linear_166_3678" x1="234.48" y1="53.5042" x2="234.48" y2="139.048" gradientUnits="userSpaceOnUse">
<stop stop-color="#4DACEF"/>
<stop offset="1" stop-color="#4DACEF" stop-opacity="0"/>
</linearGradient>
<linearGradient id="paint4_linear_166_3678" x1="337.396" y1="52.2897" x2="337.396" y2="138.99" gradientUnits="userSpaceOnUse">
<stop stop-color="#4DACEF"/>
<stop offset="1" stop-color="#4DACEF" stop-opacity="0"/>
</linearGradient>
<linearGradient id="paint5_linear_166_3678" x1="449.398" y1="53.5042" x2="449.398" y2="139.048" gradientUnits="userSpaceOnUse">
<stop stop-color="#4DACEF"/>
<stop offset="1" stop-color="#4DACEF" stop-opacity="0"/>
</linearGradient>
<linearGradient id="paint6_linear_166_3678" x1="546.476" y1="53.5042" x2="546.476" y2="139.048" gradientUnits="userSpaceOnUse">
<stop stop-color="#4DACEF"/>
<stop offset="1" stop-color="#4DACEF" stop-opacity="0"/>
</linearGradient>
<linearGradient id="paint7_linear_166_3678" x1="649.597" y1="53.5046" x2="649.597" y2="139.051" gradientUnits="userSpaceOnUse">
<stop stop-color="#4DACEF"/>
<stop offset="1" stop-color="#4DACEF" stop-opacity="0"/>
</linearGradient>
<linearGradient id="paint8_linear_166_3678" x1="746.444" y1="53.5042" x2="746.444" y2="139.048" gradientUnits="userSpaceOnUse">
<stop stop-color="#4DACEF"/>
<stop offset="1" stop-color="#4DACEF" stop-opacity="0"/>
</linearGradient>
<linearGradient id="paint9_linear_166_3678" x1="856.967" y1="53.5024" x2="856.967" y2="139.049" gradientUnits="userSpaceOnUse">
<stop stop-color="#4DACEF"/>
<stop offset="1" stop-color="#4DACEF" stop-opacity="0"/>
</linearGradient>
<linearGradient id="paint10_linear_166_3678" x1="974.807" y1="53.5024" x2="974.807" y2="139.049" gradientUnits="userSpaceOnUse">
<stop stop-color="#4DACEF"/>
<stop offset="1" stop-color="#4DACEF" stop-opacity="0"/>
</linearGradient>
<linearGradient id="paint11_linear_166_3678" x1="1051.36" y1="53.5024" x2="1051.36" y2="139.049" gradientUnits="userSpaceOnUse">
<stop stop-color="#4DACEF"/>
<stop offset="1" stop-color="#4DACEF" stop-opacity="0"/>
</linearGradient>
<linearGradient id="paint12_linear_166_3678" x1="278.019" y1="165.929" x2="278.019" y2="191.192" gradientUnits="userSpaceOnUse">
<stop stop-color="#4DACEF"/>
<stop offset="1" stop-color="#4DACEF" stop-opacity="0"/>
</linearGradient>
<linearGradient id="paint13_linear_166_3678" x1="301.322" y1="172.946" x2="301.322" y2="192.105" gradientUnits="userSpaceOnUse">
<stop stop-color="#4DACEF"/>
<stop offset="1" stop-color="#4DACEF" stop-opacity="0"/>
</linearGradient>
<linearGradient id="paint14_linear_166_3678" x1="328.437" y1="172.953" x2="328.437" y2="192.112" gradientUnits="userSpaceOnUse">
<stop stop-color="#4DACEF"/>
<stop offset="1" stop-color="#4DACEF" stop-opacity="0"/>
</linearGradient>
<linearGradient id="paint15_linear_166_3678" x1="354.825" y1="165.933" x2="354.825" y2="191.196" gradientUnits="userSpaceOnUse">
<stop stop-color="#4DACEF"/>
<stop offset="1" stop-color="#4DACEF" stop-opacity="0"/>
</linearGradient>
<linearGradient id="paint16_linear_166_3678" x1="381.9" y1="172.872" x2="381.9" y2="191.539" gradientUnits="userSpaceOnUse">
<stop stop-color="#4DACEF"/>
<stop offset="1" stop-color="#4DACEF" stop-opacity="0"/>
</linearGradient>
<linearGradient id="paint17_linear_166_3678" x1="409.574" y1="172.946" x2="409.574" y2="192.105" gradientUnits="userSpaceOnUse">
<stop stop-color="#4DACEF"/>
<stop offset="1" stop-color="#4DACEF" stop-opacity="0"/>
</linearGradient>
<linearGradient id="paint18_linear_166_3678" x1="431.156" y1="165.933" x2="431.156" y2="191.196" gradientUnits="userSpaceOnUse">
<stop stop-color="#4DACEF"/>
<stop offset="1" stop-color="#4DACEF" stop-opacity="0"/>
</linearGradient>
<linearGradient id="paint19_linear_166_3678" x1="449.61" y1="172.946" x2="449.61" y2="192.105" gradientUnits="userSpaceOnUse">
<stop stop-color="#4DACEF"/>
<stop offset="1" stop-color="#4DACEF" stop-opacity="0"/>
</linearGradient>
<linearGradient id="paint20_linear_166_3678" x1="477.133" y1="174.005" x2="477.133" y2="200.105" gradientUnits="userSpaceOnUse">
<stop stop-color="#4DACEF"/>
<stop offset="1" stop-color="#4DACEF" stop-opacity="0"/>
</linearGradient>
<linearGradient id="paint21_linear_166_3678" x1="504.896" y1="174.474" x2="504.896" y2="199.809" gradientUnits="userSpaceOnUse">
<stop stop-color="#4DACEF"/>
<stop offset="1" stop-color="#4DACEF" stop-opacity="0"/>
</linearGradient>
<linearGradient id="paint22_linear_166_3678" x1="544.721" y1="163.692" x2="544.721" y2="202.041" gradientUnits="userSpaceOnUse">
<stop stop-color="#4DACEF"/>
<stop offset="1" stop-color="#4DACEF" stop-opacity="0"/>
</linearGradient>
<linearGradient id="paint23_linear_166_3678" x1="583.478" y1="165.335" x2="583.478" y2="191.937" gradientUnits="userSpaceOnUse">
<stop stop-color="#4DACEF"/>
<stop offset="1" stop-color="#4DACEF" stop-opacity="0"/>
</linearGradient>
<linearGradient id="paint24_linear_166_3678" x1="611.461" y1="172.953" x2="611.461" y2="192.112" gradientUnits="userSpaceOnUse">
<stop stop-color="#4DACEF"/>
<stop offset="1" stop-color="#4DACEF" stop-opacity="0"/>
</linearGradient>
<linearGradient id="paint25_linear_166_3678" x1="633.028" y1="165.929" x2="633.028" y2="191.195" gradientUnits="userSpaceOnUse">
<stop stop-color="#4DACEF"/>
<stop offset="1" stop-color="#4DACEF" stop-opacity="0"/>
</linearGradient>
<linearGradient id="paint26_linear_166_3678" x1="651.443" y1="172.946" x2="651.443" y2="192.105" gradientUnits="userSpaceOnUse">
<stop stop-color="#4DACEF"/>
<stop offset="1" stop-color="#4DACEF" stop-opacity="0"/>
</linearGradient>
<linearGradient id="paint27_linear_166_3678" x1="677.884" y1="172.872" x2="677.884" y2="191.539" gradientUnits="userSpaceOnUse">
<stop stop-color="#4DACEF"/>
<stop offset="1" stop-color="#4DACEF" stop-opacity="0"/>
</linearGradient>
<linearGradient id="paint28_linear_166_3678" x1="705.645" y1="172.953" x2="705.645" y2="192.112" gradientUnits="userSpaceOnUse">
<stop stop-color="#4DACEF"/>
<stop offset="1" stop-color="#4DACEF" stop-opacity="0"/>
</linearGradient>
<linearGradient id="paint29_linear_166_3678" x1="732.657" y1="172.946" x2="732.657" y2="192.105" gradientUnits="userSpaceOnUse">
<stop stop-color="#4DACEF"/>
<stop offset="1" stop-color="#4DACEF" stop-opacity="0"/>
</linearGradient>
<linearGradient id="paint30_linear_166_3678" x1="773.639" y1="163.692" x2="773.639" y2="202.041" gradientUnits="userSpaceOnUse">
<stop stop-color="#4DACEF"/>
<stop offset="1" stop-color="#4DACEF" stop-opacity="0"/>
</linearGradient>
<linearGradient id="paint31_linear_166_3678" x1="813.314" y1="165.933" x2="813.314" y2="191.196" gradientUnits="userSpaceOnUse">
<stop stop-color="#4DACEF"/>
<stop offset="1" stop-color="#4DACEF" stop-opacity="0"/>
</linearGradient>
<linearGradient id="paint32_linear_166_3678" x1="841.534" y1="173.391" x2="841.534" y2="191.566" gradientUnits="userSpaceOnUse">
<stop stop-color="#4DACEF"/>
<stop offset="1" stop-color="#4DACEF" stop-opacity="0"/>
</linearGradient>
<linearGradient id="paint33_linear_166_3678" x1="859.596" y1="165.929" x2="859.596" y2="191.195" gradientUnits="userSpaceOnUse">
<stop stop-color="#4DACEF"/>
<stop offset="1" stop-color="#4DACEF" stop-opacity="0"/>
</linearGradient>
<linearGradient id="paint34_linear_166_3678" x1="880.324" y1="166.003" x2="880.324" y2="191.76" gradientUnits="userSpaceOnUse">
<stop stop-color="#4DACEF"/>
<stop offset="1" stop-color="#4DACEF" stop-opacity="0"/>
</linearGradient>
<linearGradient id="paint35_linear_166_3678" x1="907.409" y1="172.946" x2="907.409" y2="192.105" gradientUnits="userSpaceOnUse">
<stop stop-color="#4DACEF"/>
<stop offset="1" stop-color="#4DACEF" stop-opacity="0"/>
</linearGradient>
<linearGradient id="paint36_linear_166_3678" x1="933.848" y1="172.872" x2="933.848" y2="191.539" gradientUnits="userSpaceOnUse">
<stop stop-color="#4DACEF"/>
<stop offset="1" stop-color="#4DACEF" stop-opacity="0"/>
</linearGradient>
<linearGradient id="paint37_linear_166_3678" x1="961.596" y1="172.953" x2="961.596" y2="192.112" gradientUnits="userSpaceOnUse">
<stop stop-color="#4DACEF"/>
<stop offset="1" stop-color="#4DACEF" stop-opacity="0"/>
</linearGradient>
<linearGradient id="paint38_linear_166_3678" x1="988.608" y1="172.946" x2="988.608" y2="192.105" gradientUnits="userSpaceOnUse">
<stop stop-color="#4DACEF"/>
<stop offset="1" stop-color="#4DACEF" stop-opacity="0"/>
</linearGradient>
</defs>
</svg>
