<svg width="120" height="119" viewBox="0 0 120 119" fill="none" xmlns="http://www.w3.org/2000/svg">
<path fill-rule="evenodd" clip-rule="evenodd" d="M74.9539 59.5955C74.7821 58.9253 74.2104 57.9969 73.9632 57.6967C73.7651 57.5022 73.5648 57.1719 73.4516 56.7529L73.4743 56.2321L73.6706 52.244L73.6801 52.1854C73.7611 51.5966 74.1669 48.5841 74.1669 47.0064C74.1669 45.4474 73.1762 43.3768 72.9664 42.9578C73.3252 39.9398 73.1158 35.1002 73.0931 34.7095C73.1345 34.4473 73.4139 32.403 73.4139 31.6028C73.4139 30.8122 73.4139 29.4872 72.2475 27.6942C71.017 25.7991 69.2313 25.6386 67.372 25.6386C67.3665 25.6386 67.361 25.6386 67.357 25.6386C67.0552 25.5952 64.7601 24.459 63.1385 23.6285L63.2008 21.5561C63.5597 21.0654 63.5824 20.8728 63.5897 20.8087C63.6087 20.6558 63.7182 19.8536 63.8314 19.0043L63.8332 18.9873C64.3408 18.7457 64.7202 18.0851 64.8015 17.7359C64.8165 17.668 64.8374 17.5944 64.8543 17.517C65.0242 16.8432 65.215 16.075 64.762 15.8391C64.7221 15.8183 64.6807 15.8013 64.6393 15.7919C64.7675 15.1652 64.8337 14.3065 64.5825 12.7456C64.2918 10.9374 62.0007 10.2994 60.1319 10.2994H60.0773C58.1729 10.2994 55.8739 10.9412 55.6757 12.7587C55.5285 14.1158 55.5058 15.1162 55.6039 15.7938C55.5662 15.8051 55.5248 15.8202 55.4889 15.8391C55.0341 16.075 55.2246 16.8432 55.3945 17.517C55.4116 17.5944 55.4322 17.668 55.4472 17.7359C55.5362 18.1285 55.9248 18.7363 56.391 18.976L56.3949 19.0156C56.5118 19.8593 56.6195 20.6558 56.6363 20.8087C56.6495 20.9219 56.7026 21.054 56.8026 21.2258L56.9157 23.6323C55.2945 24.4627 53.0012 25.5971 52.7145 25.6405C50.8343 25.6405 49.0453 25.7972 47.809 27.696C46.6407 29.4909 46.6407 30.814 46.6407 31.6047C46.6407 32.403 46.922 34.4491 46.9597 34.7116C46.9407 35.1021 46.7312 39.9416 47.0879 42.9596C46.8766 43.3768 45.8874 45.4474 45.8874 47.0082C45.8874 48.5862 46.295 51.6002 46.3745 52.1873L46.3821 52.2458L46.5972 56.5643C46.4972 57.0737 46.2668 57.474 46.0386 57.7004C45.7874 58.0006 45.2194 58.9293 45.0495 59.5992C44.806 60.6601 43.7773 62.3132 43.834 62.5776C44.0171 62.923 44.3266 63.0493 44.606 62.8834C44.9118 62.6758 45.6234 61.9265 45.7175 61.5548C45.8534 62.0133 46.4423 65.3352 46.6708 65.7392C46.752 66.1146 46.9992 66.4526 47.2823 66.4599C47.5427 66.3676 47.7013 66.2449 47.7013 66.2449C47.7807 66.613 47.9203 67.0715 48.4279 67.1C48.6751 67.0602 48.7772 66.8829 48.7582 66.6412C48.9527 66.7053 49.4357 66.5694 49.5698 66.2222C49.6811 65.9201 49.7569 65.5352 49.7888 65.3408C49.8019 65.269 49.7851 65.288 49.7888 65.3408C49.7964 65.4162 49.8774 65.5107 50.0645 65.5202C50.2531 65.4938 50.3985 65.3803 50.4626 64.6783C50.5061 64.2311 50.4966 62.9043 50.4816 62.8362C50.4663 62.7684 50.3967 61.8038 50.3703 61.3526C50.5022 60.8337 50.4286 59.2011 50.3626 58.9026C50.289 58.5668 50.1645 58.3119 49.7378 57.6344C49.7774 57.055 49.7906 56.5757 49.7983 56.3907C49.8115 56.219 49.8246 56.0358 49.8305 55.8905C49.87 55.1375 49.9265 54.3578 49.9341 54.2011C50.0059 53.9616 50.1494 53.6049 50.3191 53.1914C50.8306 51.9456 51.6085 50.0563 51.5744 48.2746C51.5517 46.9515 51.5158 45.8455 51.495 45.3075C51.4818 44.9226 51.4668 44.6131 51.4591 44.4015C51.4499 44.2809 51.4477 44.1806 51.4346 44.1015L51.4422 44.0469C51.5704 42.871 51.8158 40.5909 51.9161 38.9678C52.2633 39.9585 52.7936 41.2685 53.4996 42.4594C53.4978 44.1601 53.4466 45.2379 53.407 46.104C53.3788 46.642 53.3598 47.076 53.3561 47.5198C53.1221 47.8765 52.1501 49.526 52.1388 51.9723C51.7517 53.3877 51.3573 54.9618 51.3364 55.9377V55.9509V55.9604C51.3459 56.0641 52.0575 66.3204 52.8295 69.0572C52.969 69.546 53.1316 70.0822 53.3015 70.6465C53.979 72.8999 54.8228 75.7047 54.7565 77.3846C54.732 78.0753 54.532 78.6682 54.3035 79.353C53.845 80.7102 53.3279 82.2542 53.9468 85.1741C54.4566 87.5691 54.8019 88.6242 55.1341 89.6492C55.4077 90.5004 55.6702 91.3024 56.0192 92.82C56.1723 93.4825 56.2968 94.0241 56.4023 94.4771C56.8102 96.2269 56.8989 96.6023 56.9084 97.2289C56.7722 97.3215 56.5741 97.4838 56.444 97.7236C56.3137 97.9613 56.3081 98.3276 56.4422 98.5898C56.1796 98.8333 55.8834 99.0732 55.7098 99.1882C55.4757 99.3544 55.1304 99.7185 55.0396 99.8206C54.8905 99.9356 54.8301 100.115 54.8019 100.249C54.6547 100.345 54.566 100.485 54.5621 100.655C54.5565 100.891 54.7169 101.119 54.9433 101.212C55.0813 101.262 55.2285 101.272 55.3399 101.251C55.4267 101.3 55.5512 101.338 55.7285 101.353C55.9288 101.374 56.0701 101.349 56.1796 101.313C56.2591 101.359 56.3704 101.385 56.5158 101.385C56.7403 101.385 56.9007 101.347 57.0157 101.291C57.1179 101.372 57.2556 101.434 57.446 101.434H57.4973C57.9049 101.434 58.1708 101.321 58.3315 101.2C58.5183 101.329 58.8314 101.447 59.3752 101.396C59.6583 101.37 59.8752 101.302 60.0245 101.2C60.1754 101.304 60.3904 101.372 60.6775 101.396C61.2192 101.446 61.5323 101.329 61.7212 101.2C61.8835 101.321 62.1439 101.434 62.5537 101.434H62.6009C62.7895 101.434 62.9331 101.372 63.033 101.291C63.1481 101.347 63.3103 101.385 63.5256 101.385H63.5483C63.6879 101.385 63.7937 101.359 63.8728 101.313C63.9823 101.351 64.124 101.372 64.3185 101.353C64.4939 101.338 64.6203 101.302 64.7052 101.251C64.8165 101.274 64.9714 101.264 65.1073 101.212C65.3318 101.119 65.4941 100.891 65.4885 100.655C65.4827 100.485 65.3941 100.345 65.245 100.249C65.2205 100.117 65.1582 99.9356 65.0092 99.8206C64.9205 99.7185 64.5749 99.3544 64.3408 99.1882C64.1691 99.0713 63.8728 98.8333 63.6106 98.5898C63.7446 98.3276 63.7406 97.9613 63.6087 97.7236C63.4765 97.4838 63.2802 97.3215 63.1425 97.2289C63.1539 96.6023 63.2407 96.2269 63.6501 94.4771C63.756 94.0241 63.8823 93.4825 64.0372 92.82C64.3826 91.3024 64.6448 90.5004 64.9224 89.6492C65.2564 88.6242 65.598 87.5673 66.1038 85.1741C66.7249 82.2542 66.2078 80.7102 65.7508 79.353C65.5226 78.6682 65.3223 78.0753 65.2959 77.3846C65.2318 75.7029 66.0737 72.8999 66.7531 70.6465C66.923 70.0822 67.0834 69.546 67.2211 69.0572C67.9989 66.3204 68.7065 56.0622 68.7124 55.9604V55.9509V55.9377C68.6915 54.9618 68.2989 53.3877 67.9118 51.9723C67.9026 49.5278 66.9285 47.8783 66.6945 47.5198C66.6927 47.076 66.6718 46.642 66.6454 46.104C66.604 45.2379 66.5513 44.1601 66.5491 42.4594C67.2589 41.2685 67.7873 39.9585 68.1327 38.9678C68.2348 40.5909 68.4783 42.871 68.6084 44.0469L68.6142 44.1015C68.601 44.1806 68.5989 44.2809 68.5915 44.4015C68.5838 44.6131 68.5707 44.9226 68.5538 45.3075C68.5388 45.8455 68.4989 46.9515 68.4762 48.2746C68.4406 50.0563 69.2181 51.9456 69.7297 53.1914C69.8975 53.6027 70.0447 53.9616 70.1165 54.2011C70.1241 54.3861 70.1692 55.3752 70.1901 56.2036C70.1977 56.4453 70.2033 56.8624 70.2033 56.8624L70.2128 56.8683C70.2223 57.0851 70.2336 57.3476 70.2542 57.6344C69.8257 58.3119 69.6993 58.5668 69.6316 58.9026C69.5653 59.2011 69.4899 60.8337 69.6221 61.3526C69.5938 61.8038 69.5276 62.7684 69.5126 62.8362C69.4975 62.9021 69.488 64.2293 69.5294 64.6783C69.5957 65.3803 69.7429 65.4957 69.9297 65.5202C70.1165 65.5107 70.1977 65.4162 70.2033 65.3408C70.2072 65.288 70.1901 65.269 70.2033 65.3408C70.2391 65.5352 70.3128 65.9201 70.4222 66.2222C70.5581 66.5694 71.0452 66.7053 71.2338 66.6412C71.2151 66.8829 71.3151 67.0623 71.5641 67.1C72.0776 67.0715 72.2153 66.613 72.2929 66.2449C72.2929 66.2449 72.4533 66.3676 72.7118 66.4599C72.9931 66.4526 73.2421 66.1146 73.3213 65.7392C73.5498 65.3352 74.1368 62.0133 74.2763 61.5548C74.3708 61.9265 75.0842 62.6758 75.39 62.8834C75.6676 63.0493 75.977 62.923 76.1601 62.5776C76.2242 62.3114 75.1974 60.6561 74.9539 59.5955ZM59.8792 69.4688C59.8792 69.4556 59.9396 68.7118 60.0169 67.8493L60.1791 69.4629C60.2377 70.5898 60.1432 71.9997 60.0282 73.2587C59.9169 71.9997 59.8224 70.5898 59.8792 69.4688ZM60.3227 99.2958C60.349 99.4035 60.1981 99.6961 60.0469 99.8924C60.0414 99.8961 60.0356 99.9016 60.0264 99.9092C60.0205 99.9016 60.015 99.8961 60.011 99.8924C59.8583 99.6961 59.7092 99.4016 59.7356 99.2958C60.0491 98.054 59.7884 97.3556 59.781 97.3366C59.5847 96.7422 59.2504 91.514 59.528 90.1323L59.5921 89.8152C59.7752 88.896 59.9451 88.0657 60.0264 87.018C60.1132 88.0675 60.2791 88.896 60.4662 89.8152L60.5263 90.1323C60.8039 91.514 60.4717 96.7422 60.2791 97.3292C60.2699 97.3538 60.0092 98.0521 60.3227 99.2958Z" fill="#2F7FB3"/>
<path d="M120 118.425C101.739 113.205 87.9119 88.734 87.9119 59.3053C87.9119 29.8764 101.739 5.40761 120 0.183202V0.00012207C96.1789 4.82253 78.031 29.5252 78.031 59.3053C78.031 89.0815 96.1767 113.784 119.998 118.606L120 118.425Z" fill="#033D5A"/>
<path d="M0 0.181179C18.2609 5.40749 32.0883 29.8762 32.0883 59.3034C32.0883 88.7339 18.2591 113.205 0 118.425V118.606C23.8213 113.784 41.9671 89.0814 41.9671 59.3034C41.9671 29.5251 23.8213 4.82241 0 0V0.181179Z" fill="#033D5A"/>
</svg>
