<svg width="54" height="54" viewBox="0 0 54 54" fill="none" xmlns="http://www.w3.org/2000/svg">
<path d="M11.25 36L22.5 29.25M31.5 24.75L42.75 18M27 11.25V22.5M27 31.5V42.75M11.25 18L22.5 24.75M31.5 29.25L42.75 36" stroke="#033D5A" stroke-width="1.5" stroke-linejoin="round"/>
<path d="M46.125 20.25V33.8523M30.375 46.125L42.75 39.375M10.125 39.375L23.625 46.125M7.875 33.75V20.25M10.125 14.625L23.625 7.875M43.875 14.625L30.375 7.875" stroke="#033D5A" stroke-width="1.5" stroke-linejoin="round"/>
<path d="M27 11.25C28.864 11.25 30.375 9.73896 30.375 7.875C30.375 6.01104 28.864 4.5 27 4.5C25.136 4.5 23.625 6.01104 23.625 7.875C23.625 9.73896 25.136 11.25 27 11.25Z" stroke="#033D5A" stroke-width="1.5" stroke-linejoin="round"/>
<path d="M27 49.5C28.864 49.5 30.375 47.989 30.375 46.125C30.375 44.261 28.864 42.75 27 42.75C25.136 42.75 23.625 44.261 23.625 46.125C23.625 47.989 25.136 49.5 27 49.5Z" stroke="#033D5A" stroke-width="1.5" stroke-linejoin="round"/>
<path d="M7.875 20.25C9.73896 20.25 11.25 18.739 11.25 16.875C11.25 15.011 9.73896 13.5 7.875 13.5C6.01104 13.5 4.5 15.011 4.5 16.875C4.5 18.739 6.01104 20.25 7.875 20.25Z" stroke="#033D5A" stroke-width="1.5" stroke-linejoin="round"/>
<path d="M46.125 20.25C47.989 20.25 49.5 18.739 49.5 16.875C49.5 15.011 47.989 13.5 46.125 13.5C44.261 13.5 42.75 15.011 42.75 16.875C42.75 18.739 44.261 20.25 46.125 20.25Z" stroke="#033D5A" stroke-width="1.5" stroke-linejoin="round"/>
<path d="M46.125 40.5C47.989 40.5 49.5 38.989 49.5 37.125C49.5 35.261 47.989 33.75 46.125 33.75C44.261 33.75 42.75 35.261 42.75 37.125C42.75 38.989 44.261 40.5 46.125 40.5Z" stroke="#033D5A" stroke-width="1.5" stroke-linejoin="round"/>
<path d="M7.875 40.5C9.73896 40.5 11.25 38.989 11.25 37.125C11.25 35.261 9.73896 33.75 7.875 33.75C6.01104 33.75 4.5 35.261 4.5 37.125C4.5 38.989 6.01104 40.5 7.875 40.5Z" stroke="#033D5A" stroke-width="1.5" stroke-linejoin="round"/>
<path d="M27 21.9375L31.5 24.4688V29.5312L27 32.0625L22.5 29.5312V24.4688L27 21.9375Z" stroke="#033D5A" stroke-width="1.5" stroke-linejoin="round"/>
</svg>
