<svg width="25" height="25" viewBox="0 0 25 25" fill="none" xmlns="http://www.w3.org/2000/svg">
<path fill-rule="evenodd" clip-rule="evenodd" d="M12.5011 22.5C13.1044 22.5 13.6841 22.273 14.1177 21.867C14.4205 21.5834 14.731 21.2972 15.0451 21.0075C18.8609 17.4893 23.211 13.4784 20.816 7.87966C19.4126 4.59916 16.0439 2.5 12.5011 2.5C8.95834 2.5 5.58963 4.59916 4.18627 7.87966C1.80092 13.4556 6.10302 17.4368 9.89811 20.9489C10.2325 21.2583 10.5629 21.5641 10.8845 21.867C11.3182 22.273 11.8978 22.5 12.5011 22.5ZM12.5 15C14.433 15 16 13.433 16 11.5C16 9.567 14.433 8 12.5 8C10.567 8 9 9.567 9 11.5C9 13.433 10.567 15 12.5 15Z" fill="white"/>
</svg>
