<svg width="17" height="16" viewBox="0 0 17 16" fill="none" xmlns="http://www.w3.org/2000/svg">
<path d="M3 9.28125C3.0625 7.15625 4.04688 5.0625 5.95312 3L6.9375 3.70312C5.59375 5.10938 4.90625 6.23438 4.875 7.07812C4.90625 7.42188 5.26562 7.6875 5.95312 7.875C6.04688 7.90625 6.17188 7.9375 6.32812 7.96875C7.32812 8.34375 7.82812 9.03125 7.82812 10.0312C7.82812 10.3438 7.76562 10.6562 7.64062 10.9688C7.26562 11.9062 6.57812 12.375 5.57812 12.375C5.35938 12.375 5.125 12.3438 4.875 12.2812C3.625 11.9688 3 10.9688 3 9.28125ZM9.04688 9.28125C9.10938 7.15625 10.0938 5.0625 12 3L12.9844 3.70312C11.6406 5.10938 10.9531 6.23438 10.9219 7.07812C10.9531 7.42188 11.3125 7.6875 12 7.875C12.0938 7.90625 12.2188 7.9375 12.375 7.96875C13.375 8.34375 13.875 9.03125 13.875 10.0312C13.875 10.3438 13.8125 10.6562 13.6875 10.9688C13.3125 11.9062 12.625 12.375 11.625 12.375C11.4062 12.375 11.1719 12.3438 10.9219 12.2812C9.67188 11.9688 9.04688 10.9688 9.04688 9.28125Z" fill="#033D5A"/>
</svg>
